<?xml version="1.0"?><svg fill="#000000" xmlns="http://www.w3.org/2000/svg"  viewBox="0 0 50 50" width="50px" height="50px">    <path d="M 25 3 A 1.5 1.5 0 0 0 23.5 4.5 A 1.5 1.5 0 0 0 25 6 A 1.5 1.5 0 0 0 26.5 4.5 A 1.5 1.5 0 0 0 25 3 z M 13.5 4.0800781 A 1 1 0 0 0 12.5 5.0800781 A 1 1 0 0 0 13.5 6.0800781 A 1 1 0 0 0 14.5 5.0800781 A 1 1 0 0 0 13.5 4.0800781 z M 36.5 4.0800781 A 1 1 0 0 0 35.5 5.0800781 A 1 1 0 0 0 36.5 6.0800781 A 1 1 0 0 0 37.5 5.0800781 A 1 1 0 0 0 36.5 4.0800781 z M 16.75 9.2109375 A 1.5 1.5 0 0 0 15.25 10.710938 A 1.5 1.5 0 0 0 16.75 12.210938 A 1.5 1.5 0 0 0 18.25 10.710938 A 1.5 1.5 0 0 0 16.75 9.2109375 z M 33.25 9.2109375 A 1.5 1.5 0 0 0 31.75 10.710938 A 1.5 1.5 0 0 0 33.25 12.210938 A 1.5 1.5 0 0 0 34.75 10.710938 A 1.5 1.5 0 0 0 33.25 9.2109375 z M 25 10 A 2 2 0 0 0 23 12 A 2 2 0 0 0 25 14 A 2 2 0 0 0 27 12 A 2 2 0 0 0 25 10 z M 7.2460938 13.25 A 1.5 1.5 0 0 0 5.7460938 14.75 A 1.5 1.5 0 0 0 7.2460938 16.25 A 1.5 1.5 0 0 0 8.7460938 14.75 A 1.5 1.5 0 0 0 7.2460938 13.25 z M 42.753906 13.25 A 1.5 1.5 0 0 0 41.253906 14.75 A 1.5 1.5 0 0 0 42.753906 16.25 A 1.5 1.5 0 0 0 44.253906 14.75 A 1.5 1.5 0 0 0 42.753906 13.25 z M 21 15 C 19.35499 15 18 16.35499 18 18 C 18 19.64501 19.35499 21 21 21 C 22.64501 21 24 19.64501 24 18 C 24 16.35499 22.64501 15 21 15 z M 29 15 C 27.35499 15 26 16.35499 26 18 C 26 19.64501 27.35499 21 29 21 C 30.64501 21 32 19.64501 32 18 C 32 16.35499 30.64501 15 29 15 z M 13.742188 16.5 A 2 2 0 0 0 11.742188 18.5 A 2 2 0 0 0 13.742188 20.5 A 2 2 0 0 0 15.742188 18.5 A 2 2 0 0 0 13.742188 16.5 z M 36.257812 16.5 A 2 2 0 0 0 34.257812 18.5 A 2 2 0 0 0 36.257812 20.5 A 2 2 0 0 0 38.257812 18.5 A 2 2 0 0 0 36.257812 16.5 z M 21 17 C 21.564129 17 22 17.435871 22 18 C 22 18.564129 21.564129 19 21 19 C 20.435871 19 20 18.564129 20 18 C 20 17.435871 20.435871 17 21 17 z M 29 17 C 29.564129 17 30 17.435871 30 18 C 30 18.564129 29.564129 19 29 19 C 28.435871 19 28 18.564129 28 18 C 28 17.435871 28.435871 17 29 17 z M 17 22 C 15.35499 22 14 23.35499 14 25 C 14 26.64501 15.35499 28 17 28 C 18.64501 28 20 26.64501 20 25 C 20 23.35499 18.64501 22 17 22 z M 33 22 C 31.35499 22 30 23.35499 30 25 C 30 26.64501 31.35499 28 33 28 C 34.64501 28 36 26.64501 36 25 C 36 23.35499 34.64501 22 33 22 z M 8.5 23.5 A 1.5 1.5 0 0 0 7 25 A 1.5 1.5 0 0 0 8.5 26.5 A 1.5 1.5 0 0 0 10 25 A 1.5 1.5 0 0 0 8.5 23.5 z M 41.5 23.5 A 1.5 1.5 0 0 0 40 25 A 1.5 1.5 0 0 0 41.5 26.5 A 1.5 1.5 0 0 0 43 25 A 1.5 1.5 0 0 0 41.5 23.5 z M 2 24 A 1 1 0 0 0 1 25 A 1 1 0 0 0 2 26 A 1 1 0 0 0 3 25 A 1 1 0 0 0 2 24 z M 17 24 C 17.564129 24 18 24.435871 18 25 C 18 25.564129 17.564129 26 17 26 C 16.435871 26 16 25.564129 16 25 C 16 24.435871 16.435871 24 17 24 z M 33 24 C 33.564129 24 34 24.435871 34 25 C 34 25.564129 33.564129 26 33 26 C 32.435871 26 32 25.564129 32 25 C 32 24.435871 32.435871 24 33 24 z M 48 24 A 1 1 0 0 0 47 25 A 1 1 0 0 0 48 26 A 1 1 0 0 0 49 25 A 1 1 0 0 0 48 24 z M 21 29 C 19.35499 29 18 30.35499 18 32 C 18 33.64501 19.35499 35 21 35 C 22.64501 35 24 33.64501 24 32 C 24 30.35499 22.64501 29 21 29 z M 29 29 C 27.35499 29 26 30.35499 26 32 C 26 33.64501 27.35499 35 29 35 C 30.64501 35 32 33.64501 32 32 C 32 30.35499 30.64501 29 29 29 z M 13.742188 29.5 A 2 2 0 0 0 11.742188 31.5 A 2 2 0 0 0 13.742188 33.5 A 2 2 0 0 0 15.742188 31.5 A 2 2 0 0 0 13.742188 29.5 z M 36.257812 29.5 A 2 2 0 0 0 34.257812 31.5 A 2 2 0 0 0 36.257812 33.5 A 2 2 0 0 0 38.257812 31.5 A 2 2 0 0 0 36.257812 29.5 z M 21 31 C 21.564129 31 22 31.435871 22 32 C 22 32.564129 21.564129 33 21 33 C 20.435871 33 20 32.564129 20 32 C 20 31.435871 20.435871 31 21 31 z M 29 31 C 29.564129 31 30 31.435871 30 32 C 30 32.564129 29.564129 33 29 33 C 28.435871 33 28 32.564129 28 32 C 28 31.435871 28.435871 31 29 31 z M 7.2460938 33.75 A 1.5 1.5 0 0 0 5.7460938 35.25 A 1.5 1.5 0 0 0 7.2460938 36.75 A 1.5 1.5 0 0 0 8.7460938 35.25 A 1.5 1.5 0 0 0 7.2460938 33.75 z M 42.753906 33.75 A 1.5 1.5 0 0 0 41.253906 35.25 A 1.5 1.5 0 0 0 42.753906 36.75 A 1.5 1.5 0 0 0 44.253906 35.25 A 1.5 1.5 0 0 0 42.753906 33.75 z M 25 36 A 2 2 0 0 0 23 38 A 2 2 0 0 0 25 40 A 2 2 0 0 0 27 38 A 2 2 0 0 0 25 36 z M 16.75 37.789062 A 1.5 1.5 0 0 0 15.25 39.289062 A 1.5 1.5 0 0 0 16.75 40.789062 A 1.5 1.5 0 0 0 18.25 39.289062 A 1.5 1.5 0 0 0 16.75 37.789062 z M 33.25 37.789062 A 1.5 1.5 0 0 0 31.75 39.289062 A 1.5 1.5 0 0 0 33.25 40.789062 A 1.5 1.5 0 0 0 34.75 39.289062 A 1.5 1.5 0 0 0 33.25 37.789062 z M 13.5 43.919922 A 1 1 0 0 0 12.5 44.919922 A 1 1 0 0 0 13.5 45.919922 A 1 1 0 0 0 14.5 44.919922 A 1 1 0 0 0 13.5 43.919922 z M 36.5 43.919922 A 1 1 0 0 0 35.5 44.919922 A 1 1 0 0 0 36.5 45.919922 A 1 1 0 0 0 37.5 44.919922 A 1 1 0 0 0 36.5 43.919922 z M 25 44 A 1.5 1.5 0 0 0 23.5 45.5 A 1.5 1.5 0 0 0 25 47 A 1.5 1.5 0 0 0 26.5 45.5 A 1.5 1.5 0 0 0 25 44 z"/></svg>