<svg xmlns="http://www.w3.org/2000/svg" xmlns:xlink="http://www.w3.org/1999/xlink" width="164.98" height="26.152" viewBox="0 0 164.98 26.152">
  <defs>
    <linearGradient id="linear-gradient" x1="0.5" x2="0.5" y2="1" gradientUnits="objectBoundingBox">
      <stop offset="0" stop-color="#f8d12f"/>
      <stop offset="1" stop-color="#f0b90b"/>
    </linearGradient>
  </defs>
  <g id="criptoflex_logo" transform="translate(-50 -236)">
    <path id="Path_2" data-name="Path 2" d="M9.772.336A8.917,8.917,0,0,1,6.5-.266a7.7,7.7,0,0,1-2.7-1.778A8.362,8.362,0,0,1,1.96-4.97a11.243,11.243,0,0,1-.672-4.046,10.977,10.977,0,0,1,.7-4.046,9.158,9.158,0,0,1,1.876-3.01,7.906,7.906,0,0,1,2.744-1.876,8.612,8.612,0,0,1,3.3-.644,6.864,6.864,0,0,1,3.164.714A8.727,8.727,0,0,1,15.4-16.212L13.216-13.58a6.988,6.988,0,0,0-1.47-1.05A3.7,3.7,0,0,0,10-15.036a3.916,3.916,0,0,0-1.75.406,4.156,4.156,0,0,0-1.428,1.162,5.754,5.754,0,0,0-.952,1.848,8.057,8.057,0,0,0-.35,2.464,7.013,7.013,0,0,0,1.2,4.382A3.866,3.866,0,0,0,9.94-3.22a4.052,4.052,0,0,0,2-.49A6.191,6.191,0,0,0,13.5-4.928L15.68-2.352A7.415,7.415,0,0,1,9.772.336ZM18.116,0V-13.888h3.36l.28,2.436h.112a5.373,5.373,0,0,1,1.82-2.1,3.958,3.958,0,0,1,2.128-.672,5.468,5.468,0,0,1,.966.07,2.952,2.952,0,0,1,.686.21L26.8-10.388a6.641,6.641,0,0,0-.728-.168,4.824,4.824,0,0,0-.784-.056,3,3,0,0,0-1.638.56,4.053,4.053,0,0,0-1.414,1.988V0ZM29.26,0V-13.888h4.116V0ZM31.3-15.932a2.463,2.463,0,0,1-1.708-.6,1.991,1.991,0,0,1-.672-1.554,1.948,1.948,0,0,1,.672-1.54,2.5,2.5,0,0,1,1.708-.588,2.487,2.487,0,0,1,1.722.588,1.967,1.967,0,0,1,.658,1.54,2.01,2.01,0,0,1-.658,1.554A2.451,2.451,0,0,1,31.3-15.932ZM36.988,5.152v-19.04h3.36l.28,1.372h.112a7.746,7.746,0,0,1,1.834-1.218,4.836,4.836,0,0,1,2.114-.49,5,5,0,0,1,2.268.5,4.833,4.833,0,0,1,1.708,1.428,6.775,6.775,0,0,1,1.078,2.226,10.378,10.378,0,0,1,.378,2.9,9.51,9.51,0,0,1-.49,3.178,7.341,7.341,0,0,1-1.316,2.352,5.72,5.72,0,0,1-1.876,1.47,4.959,4.959,0,0,1-2.17.5,4.187,4.187,0,0,1-1.736-.378A5.544,5.544,0,0,1,40.964-1.12l.14,2.212v4.06Zm6.328-8.176a2.249,2.249,0,0,0,1.82-.966,5.1,5.1,0,0,0,.756-3.122q0-3.752-2.408-3.752A3.327,3.327,0,0,0,41.1-9.6V-3.92a3.36,3.36,0,0,0,1.12.7A3.3,3.3,0,0,0,43.316-3.024ZM57.652.336a5.542,5.542,0,0,1-2.2-.392A3.849,3.849,0,0,1,53.97-1.148a4.443,4.443,0,0,1-.84-1.694,8.495,8.495,0,0,1-.266-2.2v-5.628h-1.9V-13.72l2.128-.168.476-3.7H56.98v3.7h3.332v3.22H56.98V-5.1A2.417,2.417,0,0,0,57.47-3.4a1.708,1.708,0,0,0,1.3.518,2.933,2.933,0,0,0,.686-.084,4.576,4.576,0,0,0,.63-.2l.644,3q-.56.168-1.316.336A8.2,8.2,0,0,1,57.652.336Zm10.836,0a6.835,6.835,0,0,1-2.548-.49,6.465,6.465,0,0,1-2.17-1.414,6.787,6.787,0,0,1-1.5-2.282,8.057,8.057,0,0,1-.56-3.094,8.057,8.057,0,0,1,.56-3.094,6.787,6.787,0,0,1,1.5-2.282,6.465,6.465,0,0,1,2.17-1.414,6.835,6.835,0,0,1,2.548-.49,6.728,6.728,0,0,1,2.534.49,6.5,6.5,0,0,1,2.156,1.414,6.787,6.787,0,0,1,1.5,2.282,8.057,8.057,0,0,1,.56,3.094,8.057,8.057,0,0,1-.56,3.094,6.787,6.787,0,0,1-1.5,2.282A6.5,6.5,0,0,1,71.022-.154,6.728,6.728,0,0,1,68.488.336Zm0-3.332a2.089,2.089,0,0,0,1.9-1.064,5.549,5.549,0,0,0,.644-2.884,5.549,5.549,0,0,0-.644-2.884,2.089,2.089,0,0,0-1.9-1.064A2.081,2.081,0,0,0,66.57-9.828a5.649,5.649,0,0,0-.63,2.884,5.649,5.649,0,0,0,.63,2.884A2.081,2.081,0,0,0,68.488-3ZM78.4,0V-18.256H89.908v3.472H82.516v4.228h6.328v3.472H82.516V0ZM96.516.336A4.265,4.265,0,0,1,94.724,0a2.9,2.9,0,0,1-1.162-.938,3.984,3.984,0,0,1-.63-1.456,8.6,8.6,0,0,1-.2-1.918V-19.628h4.116V-4.144a1.305,1.305,0,0,0,.238.9A.682.682,0,0,0,97.58-3h.238a.9.9,0,0,0,.266-.056L98.588,0a4.374,4.374,0,0,1-.854.238A6.63,6.63,0,0,1,96.516.336Zm10.444,0a7.731,7.731,0,0,1-2.772-.49,6.388,6.388,0,0,1-2.24-1.428,6.53,6.53,0,0,1-1.484-2.282,8.321,8.321,0,0,1-.532-3.08,7.9,7.9,0,0,1,.56-3.038,7.189,7.189,0,0,1,1.47-2.3,6.39,6.39,0,0,1,2.086-1.442,6.124,6.124,0,0,1,2.436-.5,6.2,6.2,0,0,1,2.59.5,5.115,5.115,0,0,1,1.848,1.4,5.935,5.935,0,0,1,1.106,2.114,9.2,9.2,0,0,1,.364,2.646,9.645,9.645,0,0,1-.056,1.064q-.056.5-.112.756h-8.316a3.4,3.4,0,0,0,1.246,2.226,3.87,3.87,0,0,0,2.366.714,5.716,5.716,0,0,0,3-.924l1.372,2.492a9.121,9.121,0,0,1-2.366,1.148A8.314,8.314,0,0,1,106.96.336Zm-3.08-8.792h5.012a3.151,3.151,0,0,0-.532-1.9,2.072,2.072,0,0,0-1.792-.728,2.547,2.547,0,0,0-1.722.644A3.236,3.236,0,0,0,103.88-8.456ZM113.372,0l4.256-7.224-4-6.664h4.424l1.232,2.24q.28.588.574,1.19t.6,1.19h.112q.224-.588.476-1.19t.476-1.19l.952-2.24h4.256L122.7-6.748,126.98,0h-4.424l-1.344-2.3q-.336-.588-.658-1.2T119.9-4.7h-.112q-.252.588-.532,1.19T118.72-2.3L117.628,0Z" transform="translate(88 257)" fill="url(#linear-gradient)"/>
    <path id="icons8-bluelock" d="M35.974,23.834,21.524,9.384a2.939,2.939,0,0,0-4.2,0L9.952,16.831,5.013,11.892a2.934,2.934,0,0,0-4.2,0A2.883,2.883,0,0,0,0,13.954a2.673,2.673,0,0,0,.884,2.065L15.333,30.468a2.91,2.91,0,0,0,2.065.884,2.671,2.671,0,0,0,2.062-.884l7.446-7.446,4.938,4.938a2.913,2.913,0,0,0,2.065.887,2.79,2.79,0,0,0,2.065-.887,2.9,2.9,0,0,0,.884-2.062A2.673,2.673,0,0,0,35.974,23.834ZM17.4,25.233l-4.276-4.276,6.338-6.338L23.736,18.9Z" transform="translate(50 227.499)" fill="url(#linear-gradient)"/>
  </g>
</svg>
