<svg fill="#000000" xmlns="http://www.w3.org/2000/svg"  viewBox="0 0 50 50" width="50px" height="50px"><path d="M 25 2.0019531 C 12.309534 2.0019531 2 12.311487 2 25.001953 C 2 27.56052 2.4240787 30.020333 3.1953125 32.318359 L 3.4238281 33 L 12 33 L 12 32 L 12 17.435547 L 25 30.601562 L 38 17.435547 L 38 33 L 46.576172 33 L 46.804688 32.318359 C 47.575921 30.020333 48 27.56052 48 25.001953 C 48 12.311487 37.690466 2.0019531 25 2.0019531 z M 25 4.0019531 C 36.609534 4.0019531 46 13.39242 46 25.001953 C 46 27.09441 45.648765 29.093684 45.078125 31 L 40 31 L 40 12.564453 L 25 27.753906 L 10 12.564453 L 10 31 L 4.921875 31 C 4.3512345 29.093684 4 27.09441 4 25.001953 C 4 13.39242 13.390466 4.0019531 25 4.0019531 z M 14 22.308594 L 14 35 L 4.2167969 35 L 5.0839844 36.5 C 9.0608196 43.372691 16.495517 48.001953 25 48.001953 C 33.504483 48.001953 40.93918 43.372691 44.916016 36.5 L 45.783203 35 L 36 35 L 36 22.308594 L 25 33.447266 L 14 22.308594 z M 16 27.179688 L 25 36.294922 L 34 27.179688 L 34 37 L 35 37 L 42.037109 37 C 38.23683 42.384377 32.099227 46.001953 25 46.001953 C 17.900773 46.001953 11.76317 42.384377 7.9628906 37 L 16 37 L 16 27.179688 z"/></svg>