<svg fill="#000000" xmlns="http://www.w3.org/2000/svg"  viewBox="0 0 50 50" width="50px" height="50px"><path d="M 29.011719 1 A 1.0001 1.0001 0 0 0 28.683594 1.0507812 L 8.8515625 7.6621094 A 1.0001 1.0001 0 0 0 8.7207031 9.5058594 L 24.521484 17.40625 A 1.0001 1.0001 0 0 0 25.320312 17.449219 L 45.351562 9.9355469 A 1.0001 1.0001 0 0 0 45.400391 8.0839844 L 29.400391 1.0839844 A 1.0001 1.0001 0 0 0 29.011719 1 z M 28.953125 3.0703125 L 42.34375 8.9296875 L 25.025391 15.421875 L 11.773438 8.796875 L 28.953125 3.0703125 z M 4.9628906 10 A 1.0001 1.0001 0 0 0 4 11 L 4 41 A 1.0001 1.0001 0 0 0 4.5996094 41.916016 L 20.599609 48.916016 A 1.0001 1.0001 0 0 0 22 48 L 22 19 A 1.0001 1.0001 0 0 0 21.447266 18.105469 L 5.4472656 10.105469 A 1.0001 1.0001 0 0 0 4.9628906 10 z M 44.970703 12.273438 A 1.0001 1.0001 0 0 0 44.648438 12.335938 L 27.648438 18.710938 A 1.0001 1.0001 0 0 0 27 19.646484 L 27 34 A 1.0001 1.0001 0 0 0 27.667969 34.943359 L 44.667969 40.943359 A 1.0001 1.0001 0 0 0 46 40 L 46 13.271484 A 1.0001 1.0001 0 0 0 44.970703 12.273438 z M 6 12.617188 L 20 19.617188 L 20 46.470703 L 6 40.345703 L 6 12.617188 z M 44 14.714844 L 44 38.585938 L 29 33.292969 L 29 20.339844 L 44 14.714844 z"/></svg>